<svg xmlns="http://www.w3.org/2000/svg" width="82.09749" height="128.84066" viewBox="0 0 82.09749 128.84066"><title>branding</title><path d="M40.68571,5.61492A13.54823,13.54823,0,0,1,36.914,5.23113c-.14863-.04672-.28461-.08293-.415-.11476A18.88119,18.88119,0,0,0,33.66758,3.464q-.13607-.06745-.2739-.13374A33.89953,33.89953,0,0,0,18.74558.00415h-.01363a33.77669,33.77669,0,0,0-7.29563.80019C7.77643,1.18434,1.13966,1.90325.25168,2.98853c-1.196,1.46187,2.25924,8.10662,2.25924,8.10662l.39265.96926A17.29056,17.29056,0,0,0,9.22312,22.91753a18.35468,18.35468,0,0,0,10.8647,3.206,23.54074,23.54074,0,0,0,3.24008-.22543,20.06831,20.06831,0,0,0,9.09223-3.73727,20.738,20.738,0,0,0,3.73069-3.5452A18.23562,18.23562,0,0,0,37.76126,16.323a17.85364,17.85364,0,0,0,1.49321-3.19041c.29292-.82006.7477-2.09857,1.79527-2.14128V5.60353Q40.86665,5.6101,40.68571,5.61492Zm-4.44849,4.76064c-.184,3.65356-3.25351,7.16209-5.82646,9.05642a16.669,16.669,0,0,1-7.54967,3.10965c-4.471.62139-8.81172-.25346-11.61262-2.34129-3.39835-2.533-5.45153-7.29271-5.23038-12.12577.04692-1.0263.15632-1.69207.57544-2.059C7.60639,5.1298,9.813,4.63748,11.42425,4.27812c.19389-.04322.38155-.08507.56084-.12615a30.38752,30.38752,0,0,1,6.74822-.759h.01207a30.49462,30.49462,0,0,1,13.175,2.989c.08118.03932.16216.07865.2447.11953C33.95257,7.38407,36.31917,8.74579,36.23721,10.37556Z" style="fill:#0092dd"/><path d="M41.04775,5.59938v5.38777c1.04757.04271,1.50235,1.32122,1.79527,2.14128a17.85364,17.85364,0,0,0,1.49321,3.19041,18.23562,18.23562,0,0,0,1.61043,2.29266,20.738,20.738,0,0,0,3.73069,3.5452A20.06831,20.06831,0,0,0,58.76959,25.894a23.54074,23.54074,0,0,0,3.24008.22543,18.35468,18.35468,0,0,0,10.8647-3.206,17.29056,17.29056,0,0,0,6.31956-10.85312l.39265-.96926s3.45529-6.64475,2.25924-8.10662c-.888-1.08528-7.52476-1.8042-11.18464-2.18419A33.77669,33.77669,0,0,0,63.36554,0h-.01363a33.89953,33.89953,0,0,0-14.6481,3.32612q-.13812.06658-.2739.13374a18.88119,18.88119,0,0,0-2.83137,1.65235c-.13043.03183-.26641.068-.415.11476a13.54823,13.54823,0,0,1-3.77172.38379Q41.231,5.60624,41.04775,5.59938Zm8.88462.89791c.08254-.04088.16352-.0802.2447-.11953a30.49462,30.49462,0,0,1,13.175-2.989h.01207a30.38752,30.38752,0,0,1,6.74822.759c.17929.04108.367.08293.56084.12615,1.61128.35936,3.81786.85168,4.83072,1.73743.41912.367.52853,1.03272.57544,2.059.22114,4.83306-1.832,9.59273-5.23038,12.12577-2.8009,2.08783-7.14165,2.96268-11.61262,2.34129a16.669,16.669,0,0,1-7.54967-3.10965c-2.57295-1.89433-5.6425-5.40286-5.82646-9.05642C45.77832,8.74163,48.14492,7.37992,49.93237,6.49729Z" style="fill:#0092dd"/><path d="M11.80454,17.93282a.48467.48467,0,0,1-.31462.24392.77559.77559,0,0,1-.64514-.3043C8.54261,15.58638,7.17,9.23439,9.75148,6.60731c.5286-.53794,4.93212-1.5786,7.22325-1.80051a24.82973,24.82973,0,0,1,3.9641-.09114c.32326.02064.88764.09693.46969.523C20.416,6.25028,18.81624,6.2732,17.54678,6.70213c-2.14277.724-4.1848,1.69186-5.04563,3.93208a10.94485,10.94485,0,0,0-.60052,3.386c-.0603,1.17371.2049,2.36566.0326,3.53282A1.05119,1.05119,0,0,1,11.80454,17.93282Z" style="fill:#0092dd"/><path d="M54.46363,18.73018a.48467.48467,0,0,1-.31462.24392.77559.77559,0,0,1-.64514-.3043c-2.30216-2.28606-3.67477-8.638-1.09329-11.26513.5286-.53794,4.93212-1.5786,7.22325-1.80051a24.82973,24.82973,0,0,1,3.9641-.09114c.32326.02064.88764.09693.46969.523-.99252,1.01164-2.59227,1.03455-3.86174,1.46349-2.14277.724-4.1848,1.69186-5.04563,3.93208a10.94485,10.94485,0,0,0-.60052,3.386c-.0603,1.17371.2049,2.36566.0326,3.53282A1.05119,1.05119,0,0,1,54.46363,18.73018Z" style="fill:#0092dd"/><path d="M43.94851,49.46911l-2.59979-.21569-2.6894.21569a2.87174,2.87174,0,0,1-2.84073-2.45087l-1.30595-8.81471a2.88639,2.88639,0,0,1,.69651-2.33121,5.28488,5.28488,0,0,1,3.74313-1.36377c2.4153-.15656,5.05188-.29943,7.34828.5982a2.89968,2.89968,0,0,1,1.79463,3.09677l-1.30595,8.81471A2.87174,2.87174,0,0,1,43.94851,49.46911Z" style="fill:#0092dd"/><path d="M38.38258,34.8488"/><path d="M44.87193,51.08526s-.20853-.688-3.451-.71752v-.00142c-.037,0-.07156.00053-.10784.00068-.03628-.00016-.07083-.00068-.10784-.00068v.00142c-3.24248.02954-3.451.71752-3.451.71752L26.862,109.64446l14.45107,19.1962,14.45107-19.1962Z" style="fill:#0092dd"/></svg>