<svg xmlns="http://www.w3.org/2000/svg" width="158.32617" height="130.16936" viewBox="0 0 158.32617 130.16936"><title>visual_typo</title><path d="M79.11279,130.16936c-.05811,0-.11621-.002-.1748-.00488L2.8252,125.728A3.00062,3.00062,0,0,1,0,122.73284V12.23967A3.00026,3.00026,0,0,1,2.64063,9.26116L78.75342.08147A2.99965,2.99965,0,0,1,82.11279,3.06V127.16936a2.99935,2.99935,0,0,1-3,3ZM6,119.90276l70.11279,4.08691V6.44377L6,14.89983Z" style="fill:#0092dd"/><path d="M46.6222,34.462l18.29405,68.60358L59.9874,102.947,54.42246,81.17691l-20.2844.16835L28.931,102.20043l-4.3055-.10351,17.32877-67.266Zm6.45565,41.42338L44.2487,40.73814,35.40739,76.17233Z" style="fill:#0092dd"/><polygon points="45.868 93.469 42.452 93.435 42.452 71.131 45.868 71.049 45.868 93.469" style="fill:#0092dd"/><polygon points="50.578 108.042 47.364 109.905 42.539 91.567 45.706 89.63 50.578 108.042" style="fill:#0092dd"/><polygon points="41.271 109.692 38.146 107.644 42.907 89.617 46.078 91.593 41.271 109.692" style="fill:#0092dd"/><path d="M47.98766,68.9774c0,3.22348-1.71484,5.86746-3.818,5.90529-2.08983.03758-3.77427-2.51533-3.77427-5.70188s1.68444-5.82971,3.77427-5.90411C46.27281,63.20183,47.98766,65.75392,47.98766,68.9774Z" style="fill:#0092dd"/><path d="M79.24316,130.08342a3.00025,3.00025,0,0,1-3-3V3.00041A2.99974,2.99974,0,0,1,79.603.0219l76.083,9.1875a3.00024,3.00024,0,0,1,2.64014,2.97852V122.66155A3.00075,3.00075,0,0,1,155.5,125.65666l-76.083,4.42188C79.35889,130.08147,79.30078,130.08342,79.24316,130.08342Zm3-123.69922V123.90373l70.083-4.07324V14.84709Z" style="fill:#0092dd"/><polygon points="144.786 64.643 91.632 62.771 91.632 21.031 144.786 26.16 144.786 64.643" style="fill:#0092dd"/><polygon points="116.506 74.747 91.632 74.291 91.632 70.919 116.506 71.498 116.506 74.747" style="fill:#0092dd"/><polygon points="116.506 80.658 91.632 80.426 91.632 77.054 116.506 77.409 116.506 80.658" style="fill:#0092dd"/><polygon points="116.506 86.614 91.632 86.608 91.632 83.236 116.506 83.365 116.506 86.614" style="fill:#0092dd"/><polygon points="93.436 60.834 93.435 23.214 142.785 27.977 142.786 62.572 93.436 60.834" style="fill:#fff"/><path d="M95.43532,25.41706l45.35059,4.376V60.49958L95.43532,58.90241V25.41706M92.322,21.10114c-.49463,0-.88672.57178-.88672,1.31689V61.35847c0,.77588.42529,1.42041.94922,1.439l51.59277,1.81689.01855.00049c.438,0,.79-.56152.79-1.26709V27.45563c0-.71533-.36182-1.33008-.80859-1.373L92.38454,21.10407c-.021-.002-.0415-.00293-.0625-.00293Z" style="fill:#0092dd"/><path d="M107.46919,51.18093l2.86585-6.94176c.28581-.69229.87372-.75027,1.23128-.12266l2.507,4.40047c.39809.69875,1.06216.51905,1.28953-.34738l2.84657-10.84726c.28-1.067,1.16581-.9953,1.44216.11426l1.22678,4.9256a1.78265,1.78265,0,0,0,.15946.41987l1.61969,2.97459c.31276.5744.82556.59079,1.12648.037l.70645-1.30009c.30546-.56215.82691-.53142,1.13427.06583l3.93541,7.64715c.45743.88886.11182,2.28682-.55764,2.25323l-20.862-1.04677C107.48189,53.38,107.09367,52.09053,107.46919,51.18093Z" style="fill:#0092dd"/><path d="M125.35079,36.10273c0,1.08742-.582,1.92519-1.30135,1.87109-.721-.05422-1.30659-.98334-1.30659-2.07514s.58563-1.92928,1.30659-1.87068C124.7688,34.08648,125.35079,35.01531,125.35079,36.10273Z" style="fill:#0092dd"/><polygon points="116.506 96.631 91.632 97.005 91.632 93.633 116.506 93.382 116.506 96.631" style="fill:#0092dd"/><polygon points="116.324 102.209 91.432 102.791 91.432 99.418 116.324 98.959 116.324 102.209" style="fill:#0092dd"/><polygon points="116.324 108.167 91.432 108.975 91.432 105.602 116.324 104.917 116.324 108.167" style="fill:#0092dd"/><polygon points="144.382 75.257 121.612 74.84 121.612 71.617 144.382 72.147 144.382 75.257" style="fill:#0092dd"/><polygon points="144.382 80.917 121.612 80.705 121.612 77.482 144.382 77.807 144.382 80.917" style="fill:#0092dd"/><polygon points="144.382 86.621 121.612 86.615 121.612 83.392 144.382 83.51 144.382 86.621" style="fill:#0092dd"/><polygon points="144.382 96.212 121.612 96.554 121.612 93.331 144.382 93.101 144.382 96.212" style="fill:#0092dd"/><polygon points="144.219 101.556 121.434 102.089 121.434 98.864 144.219 98.444 144.219 101.556" style="fill:#0092dd"/><polygon points="144.219 107.261 121.434 108.001 121.434 104.776 144.219 104.149 144.219 107.261" style="fill:#0092dd"/></svg>