<svg xmlns="http://www.w3.org/2000/svg" width="218.83325" height="146.18164" viewBox="0 0 218.83325 146.18164"><title>web_design</title><rect x="29.99977" y="78.31819" width="59.33333" height="3" rx="1" ry="1" style="fill:#0092dd"/><rect x="87.99977" y="20.30979" width="17.23688" height="3.79528" rx="1" ry="1" style="fill:#0092dd"/><rect x="32" y="42.81836" width="55.33301" height="30.33301" style="fill:#fff"/><path d="M85.33325,44.81836v26.333H33.99976v-26.333h51.3335m3-4H30.99976a1,1,0,0,0-1,1v32.333a.99974.99974,0,0,0,1,1h57.3335a.99974.99974,0,0,0,1-1v-32.333a1,1,0,0,0-1-1Z" style="fill:#0092dd"/><rect x="29.99977" y="83.81819" width="59.33333" height="3" rx="1" ry="1" style="fill:#0092dd"/><rect x="29.99977" y="89.31819" width="42.5" height="3" rx="1" ry="1" style="fill:#0092dd"/><path d="M41.94724,66.02894,46.268,58.77826a1.12541,1.12541,0,0,1,1.86787-.20651l3.82477,4.35635a1.14813,1.14813,0,0,0,1.97869-.43481l4.39546-11.39137a1.16567,1.16567,0,0,1,2.24149.00554l1.91454,5.01885a1.45442,1.45442,0,0,0,.24939.42484l2.54,2.98365a1.1134,1.1134,0,0,0,1.774-.03552L68.17,58.0951a1.11505,1.11505,0,0,1,1.79645-.0085l6.282,7.77836a1.46217,1.46217,0,0,1-.89482,2.40093H42.9561A1.44791,1.44791,0,0,1,41.94724,66.02894Z" style="fill:#0092dd"/><circle cx="67.47316" cy="49.2627" r="2.05881" style="fill:#0092dd"/><rect x="29.99982" y="17.98486" width="24.33328" height="8.44514" rx="2" ry="2" style="fill:#0092dd"/><rect x="109.03192" y="20.30979" width="17.23688" height="3.79528" rx="1" ry="1" style="fill:#0092dd"/><rect x="91.38133" y="126.83337" width="17.23688" height="3.79528" rx="1" ry="1" style="fill:#0092dd"/><rect x="130.06407" y="20.30979" width="17.23688" height="3.79528" rx="1" ry="1" style="fill:#0092dd"/><rect x="151.09623" y="20.30979" width="17.23688" height="3.79528" rx="1" ry="1" style="fill:#0092dd"/><path d="M189,0H11A11.01245,11.01245,0,0,0,0,11v89.81836a11.01245,11.01245,0,0,0,11,11H81.00269L73.95605,136.0332a7.93213,7.93213,0,0,0,7.6167,10.14844h36.854a7.93213,7.93213,0,0,0,7.6167-10.14844l-7.04639-24.21484h52.16919v-6H11a5.00589,5.00589,0,0,1-5-5V11a5.00589,5.00589,0,0,1,5-5H189a5.00589,5.00589,0,0,1,5,5V72.7959h6V11A11.01245,11.01245,0,0,0,189,0ZM112.74854,111.81836l7.53418,25.89062a1.93271,1.93271,0,0,1-1.856,2.47266h-36.854a1.93272,1.93272,0,0,1-1.856-2.47266l7.53467-25.89062Z" style="fill:#0092dd"/><path d="M210.83325,76.7959h-27.667a8.00917,8.00917,0,0,0-8,8v50.5a8.00927,8.00927,0,0,0,8,8.00049h27.667a8.00927,8.00927,0,0,0,8-8.00049v-50.5A8.00917,8.00917,0,0,0,210.83325,76.7959Zm2,58.5a2.00271,2.00271,0,0,1-2,2.00049h-27.667a2.00271,2.00271,0,0,1-2-2.00049v-50.5a2.00229,2.00229,0,0,1,2-2h27.667a2.00229,2.00229,0,0,1,2,2Z" style="fill:#0092dd"/><path d="M188.43164,85.70313h-3.35449a1,1,0,0,0-1,1v3.35449a1,1,0,0,0,1,1h3.35449a1,1,0,0,0,1-1V86.70313A1,1,0,0,0,188.43164,85.70313Z" style="fill:#0092dd"/><path d="M190.59814,95.17627h-5.521a1,1,0,0,0-1,1v5.521a.99974.99974,0,0,0,1,1h5.521a.99974.99974,0,0,0,1-1v-5.521A1,1,0,0,0,190.59814,95.17627Z" style="fill:#0092dd"/><path d="M208.87207,87.26953h-6.37256a.99974.99974,0,0,0-1,1v.22168a1,1,0,0,0,1,1h6.37256a1,1,0,0,0,1-1v-.22168A.99974.99974,0,0,0,208.87207,87.26953Z" style="fill:#0092dd"/><path d="M208.83325,95.8501a.89145.89145,0,0,0-.1189-.02393H194.28491A.97377.97377,0,0,0,194,95.8833a.98769.98769,0,0,0-.71509.94287v.22168A.98755.98755,0,0,0,194,97.99023a.97423.97423,0,0,0,.28491.05762h14.42944a.97613.97613,0,0,0,.1189-.02393.98923.98923,0,0,0,.8811-.97607v-.22168A.98887.98887,0,0,0,208.83325,95.8501Z" style="fill:#0092dd"/><path d="M201.3418,99.82617h-7.05688A.97377.97377,0,0,0,194,99.8833a.98769.98769,0,0,0-.71509.94287v.22168a.99546.99546,0,0,0,.57568.89795.9843.9843,0,0,0,.42432.10205h7.05688a1,1,0,0,0,1-1v-.22168A.99974.99974,0,0,0,201.3418,99.82617Z" style="fill:#0092dd"/><path d="M191.10767,105.33594a.97133.97133,0,0,0-.50952-.15967h-5.521a1.01981,1.01981,0,0,0-1,1v5.521a.91677.91677,0,0,0,.02441.12109.98833.98833,0,0,0,.97559.87891h5.521a.99974.99974,0,0,0,1-1v-5.521A.98528.98528,0,0,0,191.10767,105.33594Z" style="fill:#0092dd"/><path d="M208.83325,105.8501a.89145.89145,0,0,0-.1189-.02393H194.28491a.99974.99974,0,0,0-1,1v.22168a1,1,0,0,0,1,1h14.42944a.97613.97613,0,0,0,.1189-.02393.98923.98923,0,0,0,.8811-.97607v-.22168A.98887.98887,0,0,0,208.83325,105.8501Z" style="fill:#0092dd"/><path d="M201.3418,109.82617h-7.05688a.99974.99974,0,0,0-1,1v.22168a1,1,0,0,0,1,1h7.05688a1,1,0,0,0,1-1v-.22168A.99974.99974,0,0,0,201.3418,109.82617Z" style="fill:#0092dd"/><path d="M190.59814,115.17627h-5.521a1,1,0,0,0-1,1v5.521a.99974.99974,0,0,0,1,1h5.521a.99974.99974,0,0,0,1-1v-5.521A1,1,0,0,0,190.59814,115.17627Z" style="fill:#0092dd"/><path d="M208.83325,115.8501a.89145.89145,0,0,0-.1189-.02393H194.28491a.99974.99974,0,0,0-1,1v.22168a1,1,0,0,0,1,1h14.42944a.97613.97613,0,0,0,.1189-.02393.98923.98923,0,0,0,.8811-.97607v-.22168A.98887.98887,0,0,0,208.83325,115.8501Z" style="fill:#0092dd"/><rect x="193.28491" y="119.82617" width="9.05688" height="2.22168" rx="1" ry="1" style="fill:#0092dd"/><path d="M188.43164,128.731h-3.35449a1,1,0,0,0-1,1v3.35449a1,1,0,0,0,1,1h3.35449a.98543.98543,0,0,0,.95728-.78906.9569.9569,0,0,0,.04272-.21094V129.731A1,1,0,0,0,188.43164,128.731Z" style="fill:#0092dd"/><path d="M208.87207,128.731h-3.35449a1,1,0,0,0-1,1v3.35449a.97082.97082,0,0,0,.04248.21094.9857.9857,0,0,0,.95752.78906h3.35449a1,1,0,0,0,1-1V129.731A1,1,0,0,0,208.87207,128.731Z" style="fill:#0092dd"/><path d="M196.99951,127.85156a3.54387,3.54387,0,1,0,3.55688,3.55664A3.55654,3.55654,0,0,0,196.99951,127.85156Z" style="fill:#0092dd"/><rect x="108.99977" y="78.31819" width="59.33333" height="3" rx="1" ry="1" style="fill:#0092dd"/><rect x="111" y="42.81836" width="55.33301" height="30.33301" style="fill:#fff"/><path d="M164.33325,44.81836v26.333h-51.3335v-26.333h51.3335m3-4h-57.3335a1,1,0,0,0-1,1v32.333a.99974.99974,0,0,0,1,1h57.3335a.99974.99974,0,0,0,1-1v-32.333a1,1,0,0,0-1-1Z" style="fill:#0092dd"/><rect x="108.99977" y="83.81819" width="59.33333" height="3" rx="1" ry="1" style="fill:#0092dd"/><rect x="108.99977" y="89.31819" width="42.5" height="3" rx="1" ry="1" style="fill:#0092dd"/><path d="M120.94724,66.02894l4.32076-7.25068a1.12541,1.12541,0,0,1,1.86787-.20651l3.82477,4.35635a1.14813,1.14813,0,0,0,1.97869-.43481l4.39546-11.39137a1.16567,1.16567,0,0,1,2.24149.00554l1.91454,5.01885a1.45442,1.45442,0,0,0,.24939.42484l2.54,2.98365a1.1134,1.1134,0,0,0,1.774-.03552L147.17,58.0951a1.11505,1.11505,0,0,1,1.79645-.0085l6.282,7.77836a1.46217,1.46217,0,0,1-.89482,2.40093H121.9561A1.44791,1.44791,0,0,1,120.94724,66.02894Z" style="fill:#0092dd"/><circle cx="146.47316" cy="49.2627" r="2.05881" style="fill:#0092dd"/></svg>