<svg xmlns="http://www.w3.org/2000/svg" width="218.833" height="146.182" viewBox="0 0 218.83325 146.18164"><title>web_design</title><rect x="30" y="78.318" width="59.333" height="3" rx="1" ry="1" fill="#0092dd"/><rect x="88" y="20.31" width="17.237" height="3.795" rx="1" ry="1" fill="#0092dd"/><path fill="#fff" d="M32 42.818h55.333v30.333H32z"/><path d="M85.333 44.818v26.333H34V44.818h51.333m3-4H31a1 1 0 0 0-1 1v32.333a1 1 0 0 0 1 1h57.333a1 1 0 0 0 1-1V41.818a1 1 0 0 0-1-1z" fill="#0092dd"/><rect x="30" y="83.818" width="59.333" height="3" rx="1" ry="1" fill="#0092dd"/><rect x="30" y="89.318" width="42.5" height="3" rx="1" ry="1" fill="#0092dd"/><path d="M41.947 66.029l4.321-7.25a1.125 1.125 0 0 1 1.868-.207l3.825 4.356a1.148 1.148 0 0 0 1.978-.435l4.396-11.391a1.166 1.166 0 0 1 2.241.005l1.915 5.02a1.454 1.454 0 0 0 .25.424l2.54 2.984a1.113 1.113 0 0 0 1.773-.036l1.116-1.404a1.115 1.115 0 0 1 1.796-.008l6.282 7.778a1.462 1.462 0 0 1-.894 2.4H42.956a1.448 1.448 0 0 1-1.009-2.236z" fill="#0092dd"/><circle cx="67.473" cy="49.263" r="2.059" fill="#0092dd"/><rect x="30" y="17.985" width="24.333" height="8.445" rx="2" ry="2" fill="#0092dd"/><rect x="109.032" y="20.31" width="17.237" height="3.795" rx="1" ry="1" fill="#0092dd"/><rect x="91.381" y="126.833" width="17.237" height="3.795" rx="1" ry="1" fill="#0092dd"/><rect x="130.064" y="20.31" width="17.237" height="3.795" rx="1" ry="1" fill="#0092dd"/><rect x="151.096" y="20.31" width="17.237" height="3.795" rx="1" ry="1" fill="#0092dd"/><path d="M189 0H11A11.012 11.012 0 0 0 0 11v89.818a11.012 11.012 0 0 0 11 11h70.003l-7.047 24.215a7.932 7.932 0 0 0 7.617 10.149h36.854a7.932 7.932 0 0 0 7.616-10.149l-7.046-24.215h52.17v-6H11a5.006 5.006 0 0 1-5-5V11a5.006 5.006 0 0 1 5-5h178a5.006 5.006 0 0 1 5 5v61.796h6V11a11.012 11.012 0 0 0-11-11zm-76.251 111.818l7.534 25.891a1.933 1.933 0 0 1-1.856 2.473H81.573a1.933 1.933 0 0 1-1.856-2.473l7.534-25.89z" fill="#0092dd"/><path d="M210.833 76.796h-27.667a8.01 8.01 0 0 0-8 8v50.5a8.01 8.01 0 0 0 8 8h27.667a8.01 8.01 0 0 0 8-8v-50.5a8.01 8.01 0 0 0-8-8zm2 58.5a2.003 2.003 0 0 1-2 2h-27.667a2.003 2.003 0 0 1-2-2v-50.5a2.002 2.002 0 0 1 2-2h27.667a2.002 2.002 0 0 1 2 2z" fill="#0092dd"/><path d="M188.432 85.703h-3.355a1 1 0 0 0-1 1v3.355a1 1 0 0 0 1 1h3.355a1 1 0 0 0 1-1v-3.355a1 1 0 0 0-1-1zm2.166 9.473h-5.52a1 1 0 0 0-1 1v5.521a1 1 0 0 0 1 1h5.52a1 1 0 0 0 1-1v-5.52a1 1 0 0 0-1-1zm18.274-7.906H202.5a1 1 0 0 0-1 1v.221a1 1 0 0 0 1 1h6.372a1 1 0 0 0 1-1v-.221a1 1 0 0 0-1-1zm-.039 8.58a.891.891 0 0 0-.119-.024h-14.43a.974.974 0 0 0-.284.057.988.988 0 0 0-.715.943v.222a.988.988 0 0 0 .715.942.974.974 0 0 0 .285.058h14.43a.976.976 0 0 0 .118-.024.99.99 0 0 0 .881-.976v-.222a.989.989 0 0 0-.88-.976zm-7.491 3.976h-7.057a.974.974 0 0 0-.285.057.988.988 0 0 0-.715.943v.222a.995.995 0 0 0 .576.898.984.984 0 0 0 .424.102h7.057a1 1 0 0 0 1-1v-.222a1 1 0 0 0-1-1zm-10.234 5.51a.971.971 0 0 0-.51-.16h-5.52a1.02 1.02 0 0 0-1 1v5.521a.917.917 0 0 0 .024.121.988.988 0 0 0 .975.88h5.521a1 1 0 0 0 1-1v-5.522a.985.985 0 0 0-.49-.84zm17.725.514a.891.891 0 0 0-.119-.024h-14.43a1 1 0 0 0-1 1v.222a1 1 0 0 0 1 1h14.43a.976.976 0 0 0 .12-.024.99.99 0 0 0 .88-.976v-.222a.989.989 0 0 0-.88-.976zm-7.491 3.976h-7.057a1 1 0 0 0-1 1v.222a1 1 0 0 0 1 1h7.057a1 1 0 0 0 1-1v-.222a1 1 0 0 0-1-1zm-10.744 5.35h-5.52a1 1 0 0 0-1 1v5.521a1 1 0 0 0 1 1h5.52a1 1 0 0 0 1-1v-5.52a1 1 0 0 0-1-1zm18.235.674a.891.891 0 0 0-.119-.024h-14.43a1 1 0 0 0-1 1v.222a1 1 0 0 0 1 1h14.43a.976.976 0 0 0 .12-.024.99.99 0 0 0 .88-.976v-.222a.989.989 0 0 0-.88-.976z" fill="#0092dd"/><rect x="193.285" y="119.826" width="9.057" height="2.222" rx="1" ry="1" fill="#0092dd"/><path d="M188.432 128.731h-3.355a1 1 0 0 0-1 1v3.354a1 1 0 0 0 1 1h3.355a.985.985 0 0 0 .957-.789.957.957 0 0 0 .043-.21v-3.355a1 1 0 0 0-1-1zm20.44 0h-3.354a1 1 0 0 0-1 1v3.354a.97.97 0 0 0 .042.211.986.986 0 0 0 .958.79h3.354a1 1 0 0 0 1-1v-3.355a1 1 0 0 0-1-1zM197 127.852a3.544 3.544 0 1 0 3.556 3.556 3.557 3.557 0 0 0-3.556-3.556z" fill="#0092dd"/><rect x="109" y="78.318" width="59.333" height="3" rx="1" ry="1" fill="#0092dd"/><path fill="#fff" d="M111 42.818h55.333v30.333H111z"/><path d="M164.333 44.818v26.333H113V44.818h51.333m3-4H110a1 1 0 0 0-1 1v32.333a1 1 0 0 0 1 1h57.333a1 1 0 0 0 1-1V41.818a1 1 0 0 0-1-1z" fill="#0092dd"/><rect x="109" y="83.818" width="59.333" height="3" rx="1" ry="1" fill="#0092dd"/><rect x="109" y="89.318" width="42.5" height="3" rx="1" ry="1" fill="#0092dd"/><path d="M120.947 66.029l4.321-7.25a1.125 1.125 0 0 1 1.868-.207l3.825 4.356a1.148 1.148 0 0 0 1.978-.435l4.396-11.391a1.166 1.166 0 0 1 2.241.005l1.915 5.02a1.454 1.454 0 0 0 .25.424l2.54 2.984a1.113 1.113 0 0 0 1.773-.036l1.116-1.404a1.115 1.115 0 0 1 1.796-.008l6.282 7.778a1.462 1.462 0 0 1-.894 2.4h-32.398a1.448 1.448 0 0 1-1.009-2.236z" fill="#0092dd"/><circle cx="146.473" cy="49.263" r="2.059" fill="#0092dd"/></svg>