<svg xmlns="http://www.w3.org/2000/svg" width="82.097" height="128.841" viewBox="0 0 82.09749 128.84066"><title>branding</title><path d="M40.686 5.615a13.548 13.548 0 0 1-3.772-.384 6.505 6.505 0 0 0-.415-.115 18.881 18.881 0 0 0-2.831-1.652l-.274-.134A33.9 33.9 0 0 0 18.746.004h-.014a33.777 33.777 0 0 0-7.296.8C7.776 1.184 1.14 1.904.252 2.99-.944 4.45 2.51 11.095 2.51 11.095l.393.97a17.29 17.29 0 0 0 6.32 10.853 18.355 18.355 0 0 0 10.864 3.206 23.54 23.54 0 0 0 3.24-.226 20.068 20.068 0 0 0 9.092-3.737 20.738 20.738 0 0 0 3.73-3.545 18.236 18.236 0 0 0 1.611-2.293 17.854 17.854 0 0 0 1.493-3.19c.293-.82.748-2.099 1.796-2.142V5.604l-.364.01zm-4.449 4.76c-.184 3.654-3.253 7.163-5.826 9.057a16.669 16.669 0 0 1-7.55 3.11c-4.47.621-8.812-.254-11.613-2.342-3.398-2.533-5.451-7.292-5.23-12.125.047-1.027.156-1.693.576-2.06 1.012-.885 3.219-1.378 4.83-1.737l.561-.126a30.388 30.388 0 0 1 6.748-.759h.012A30.495 30.495 0 0 1 31.92 6.382l.245.12c1.788.882 4.154 2.244 4.072 3.874z" fill="#0092dd"/><path d="M41.048 5.6v5.387c1.047.043 1.502 1.321 1.795 2.141a17.854 17.854 0 0 0 1.493 3.19 18.236 18.236 0 0 0 1.61 2.294 20.738 20.738 0 0 0 3.731 3.545 20.068 20.068 0 0 0 9.093 3.737 23.54 23.54 0 0 0 3.24.225 18.355 18.355 0 0 0 10.864-3.206 17.29 17.29 0 0 0 6.32-10.853l.393-.969s3.455-6.645 2.259-8.107C80.958 1.9 74.32 1.18 70.66.8a33.777 33.777 0 0 0-7.295-.8h-.014a33.9 33.9 0 0 0-14.648 3.326l-.274.134a18.881 18.881 0 0 0-2.831 1.652 6.4 6.4 0 0 0-.415.115 13.548 13.548 0 0 1-3.772.384l-.364-.012zm8.884.897l.245-.12A30.495 30.495 0 0 1 63.352 3.39h.012a30.388 30.388 0 0 1 6.748.759l.561.126c1.611.36 3.818.852 4.83 1.737.42.367.53 1.033.576 2.06.222 4.832-1.832 9.592-5.23 12.125-2.8 2.088-7.142 2.963-11.613 2.341a16.669 16.669 0 0 1-7.55-3.11c-2.572-1.894-5.642-5.402-5.826-9.056-.082-1.63 2.285-2.991 4.072-3.874zM11.805 17.933a.485.485 0 0 1-.315.244.776.776 0 0 1-.645-.305C8.543 15.586 7.17 9.234 9.75 6.607c.53-.538 4.933-1.578 7.224-1.8a24.83 24.83 0 0 1 3.964-.091c.323.02.887.097.47.523-.993 1.011-2.593 1.034-3.862 1.463-2.143.724-4.185 1.692-5.046 3.932a10.945 10.945 0 0 0-.6 3.386c-.06 1.174.205 2.366.032 3.533a1.051 1.051 0 0 1-.128.38z" fill="#0092dd"/><path d="M54.464 18.73a.485.485 0 0 1-.315.244.776.776 0 0 1-.645-.304c-2.302-2.286-3.675-8.638-1.093-11.265.528-.538 4.932-1.579 7.223-1.8a24.83 24.83 0 0 1 3.964-.092c.323.02.888.097.47.523-.993 1.012-2.593 1.035-3.862 1.464-2.143.724-4.185 1.691-5.046 3.932a10.945 10.945 0 0 0-.6 3.386c-.06 1.173.205 2.365.032 3.532a1.051 1.051 0 0 1-.128.38zM43.949 49.47l-2.6-.217-2.69.216a2.872 2.872 0 0 1-2.84-2.45l-1.306-8.815a2.886 2.886 0 0 1 .696-2.332 5.285 5.285 0 0 1 3.743-1.363c2.416-.157 5.052-.3 7.349.598a2.9 2.9 0 0 1 1.794 3.097l-1.306 8.814a2.872 2.872 0 0 1-2.84 2.451zm.923 1.615s-.209-.688-3.451-.717v-.002l-.108.001h-.108c-3.242.03-3.45.718-3.45.718l-10.893 58.56 14.451 19.196 14.451-19.197z" fill="#0092dd"/></svg>