<svg xmlns="http://www.w3.org/2000/svg" width="158.326" height="130.169" viewBox="0 0 158.32617 130.16936"><title>visual_typo</title><path d="M79.113 130.17c-.058 0-.116-.003-.175-.006l-76.113-4.436A3 3 0 0 1 0 122.733V12.24a3 3 0 0 1 2.64-2.98L78.754.081a3 3 0 0 1 3.36 2.979v124.11a3 3 0 0 1-3 3zM6 119.902l70.113 4.087V6.444L6 14.9z" fill="#0092dd"/><path d="M46.622 34.462l18.294 68.604-4.929-.119-5.565-21.77-20.284.168-5.207 20.855-4.306-.103 17.33-67.266zm6.456 41.423l-8.83-35.147-8.84 35.434z" fill="#0092dd"/><path fill="#0092dd" d="M45.868 93.469l-3.416-.034V71.131l3.416-.082v22.42z"/><path fill="#0092dd" d="M50.578 108.042l-3.214 1.863-4.825-18.338 3.167-1.937 4.872 18.412z"/><path fill="#0092dd" d="M41.271 109.692l-3.125-2.048 4.761-18.027 3.171 1.976-4.807 18.099zm6.717-40.715c0 3.224-1.715 5.868-3.818 5.906-2.09.037-3.775-2.516-3.775-5.702s1.685-5.83 3.775-5.904c2.103-.075 3.818 2.477 3.818 5.7zm31.255 61.106a3 3 0 0 1-3-3V3a3 3 0 0 1 3.36-2.978l76.083 9.187a3 3 0 0 1 2.64 2.979v110.474a3 3 0 0 1-2.826 2.995l-76.083 4.422a3.459 3.459 0 0 1-.174.004zm3-123.699v117.52l70.083-4.074V14.847z"/><path fill="#0092dd" d="M144.786 64.643l-53.154-1.872v-41.74l53.154 5.129v38.483zm-28.28 10.104l-24.874-.456v-3.372l24.874.579v3.249zm0 5.911l-24.874-.232v-3.372l24.874.355v3.249zm0 5.956l-24.874-.006v-3.372l24.874.129v3.249z"/><path fill="#fff" d="M93.436 60.834l-.001-37.62 49.35 4.763.001 34.595-49.35-1.738z"/><path d="M95.435 25.417l45.35 4.376V60.5l-45.35-1.598V25.417m-3.113-4.316c-.495 0-.887.572-.887 1.317v38.94c0 .776.426 1.42.95 1.44l51.592 1.816h.019c.438 0 .79-.56.79-1.266V27.456c0-.716-.362-1.33-.809-1.373l-51.592-4.979a.654.654 0 0 0-.063-.003z" fill="#0092dd"/><path d="M107.47 51.18l2.865-6.94c.286-.693.874-.751 1.231-.123l2.507 4.4c.398.699 1.062.519 1.29-.347l2.846-10.848c.28-1.067 1.166-.995 1.443.115l1.226 4.925a1.783 1.783 0 0 0 .16.42l1.62 2.975c.312.574.825.59 1.126.037l.706-1.3c.306-.563.827-.532 1.135.065l3.935 7.648c.458.888.112 2.286-.558 2.253l-20.862-1.047c-.658-.033-1.046-1.322-.67-2.232zm17.88-15.077c0 1.087-.581 1.925-1.3 1.87-.722-.053-1.307-.983-1.307-2.074s.585-1.93 1.306-1.871c.72.058 1.302.987 1.302 2.075zm-8.844 60.528l-24.874.374v-3.372l24.874-.251v3.249zm-.182 5.578l-24.892.582v-3.373l24.892-.459v3.25zm0 5.958l-24.892.808v-3.373l24.892-.685v3.25zm28.058-32.91l-22.77-.417v-3.223l22.77.53v3.11zm0 5.66l-22.77-.212v-3.223l22.77.325v3.11zm0 5.704l-22.77-.006v-3.223l22.77.118v3.111zm0 9.591l-22.77.342v-3.223l22.77-.23v3.111zm-.163 5.344l-22.785.533v-3.225l22.785-.42v3.112zm0 5.705l-22.785.74v-3.225l22.785-.627v3.112z" fill="#0092dd"/></svg>