<svg xmlns="http://www.w3.org/2000/svg" width="44.215" height="44.215" viewBox="0 0 44.21513 44.21513"><defs><style>.a{fill:#0092dd}.b{fill:none}</style></defs><title>favicon_1</title><path class="a" d="M32.1 12.461q-.127-2.286-.429-4.558-.183-1.376-.43-2.743a2.352 2.352 0 0 0-.12-.11 2.335 2.335 0 0 0-3.483.497q.297 1.55.512 3.112.207 1.51.336 3.027.04.47.072.94-.12-.48-.254-.955a34.912 34.912 0 0 0-3.57-8.339q-.788-1.33-1.692-2.588a2.385 2.385 0 0 0-.095-.025 2.34 2.34 0 0 0-2.861 2.095q.842 1.168 1.585 2.402a34.976 34.976 0 0 1 2.513 5.053l-.026-.042a36.211 36.211 0 0 0-6.265-8.292Q17.08 1.13 16.217.378a2.339 2.339 0 0 0-.69-.061c-.063.003-.125.01-.187.019a2.339 2.339 0 0 0-1.88 3.095q.858.722 1.669 1.499a34.731 34.731 0 0 1 8.78 13.633 8.467 8.467 0 0 0-11.884 7.248 2.339 2.339 0 0 0 3.589.883 4.887 4.887 0 1 1 .307 1.11 2.338 2.338 0 0 0-2.751 2.707l.024.12a2.323 2.323 0 0 0 .172.488 14.613 14.613 0 0 0 1.605 3.248 13.942 13.942 0 0 1 6.23 5.315q.354.556.655 1.147a13.812 13.812 0 0 1 .6 1.352q.106.28.201.566.189.567.329 1.156a34.586 34.586 0 0 0 1.22-3.243 14.667 14.667 0 0 0 1.88.269 14.742 14.742 0 0 0 1.14.043 14.779 14.779 0 0 0 2.093-.149 40.222 40.222 0 0 0 1.015-10.389A59.145 59.145 0 0 0 32.1 12.461z"/><path class="b" d="M0 0h44.215v44.215H0z"/></svg>