<svg xmlns="http://www.w3.org/2000/svg" viewBox="0 0 520.43 520.43"><defs><style>.cls-1{fill:#0092dd}</style></defs><title>illustration</title><g id="Слой_2" data-name="Слой 2"><path class="cls-1" d="M444.25 336.4l-.01-5.77-.01-38.12-2.98 2.98-28.04 28.06-59.02 59.08-30.56 30.58-30.96 30.99-11.98 11.99-20.39 20.4-25.21-25.2-27.84 16.07 52.96 52.97 54.99-54.99 75.12 20.13 11.1-41.41 42.87-.02-.04-107.74zM260.21 0l-54.99 54.99-75.11-20.13-11.1 41.41-42.87.02.04 107.74.01 5.76.01 38.13 2.98-2.98 28.04-28.06 59.02-59.08 30.56-30.58 30.96-30.99 11.99-11.99 20.38-20.4 25.22 25.2 27.83-16.07L260.21 0zm-35.27 441.25l-28.06-28.04-59.08-59.02-30.58-30.56-30.99-30.96-11.99-11.98-20.4-20.39 25.2-25.21-16.07-27.84L0 260.21l54.99 54.99-20.13 75.12 41.41 11.1.02 42.87 107.74-.04 5.76-.01 38.13-.01-2.98-2.98zm240.5-236.03l20.13-75.11-41.41-11.1-.02-42.87-107.74.04-5.77.01-38.12.01 2.98 2.98 28.06 28.04 59.08 59.02 30.58 30.56 30.99 30.96 11.99 11.99 20.4 20.38-25.2 25.22 16.07 27.83 52.97-52.97-54.99-54.99z" id="Слой_1-2" data-name="Слой 1"/></g></svg>