<svg xmlns="http://www.w3.org/2000/svg" width="546.701" height="384.437" viewBox="0 0 546.70135 384.43652"><defs><style>.a{fill:#1d2225}</style></defs><title>mail2</title><path class="a" d="M545.574 39.594a48.825 48.825 0 0 0-38.46-38.46C503.007.353 383.06 0 273.351 0S43.695.354 39.587 1.133a48.823 48.823 0 0 0-38.46 38.46C.353 43.679 0 121.61 0 192.292s.353 148.612 1.127 152.696a49.217 49.217 0 0 0 13.244 24.897 47.524 47.524 0 0 0 24.38 13.499c3.572.701 123.851 1.037 234.094 1.053h7.983c110.036 0 222.68-.305 226.286-.988a48.823 48.823 0 0 0 38.46-38.46c.775-4.087 1.127-82.018 1.127-152.697 0-70.68-.352-148.61-1.127-152.697zM514.167 192.29c0 101.836-.26 132.96-1.15 135.155-2.37-1.664-30.681-29.478-68.018-66.829-37.747-37.76-65.68-66.221-66.844-68.101 1.144-1.892 29.046-30.457 66.768-68.348 37.19-37.358 66.178-65.939 68.017-67.07 1.057 1.513 1.227 33.955 1.227 135.193zm-128.568-54.602C336.406 186.87 282.703 240.185 281.04 241.024c-2.923 1.479-12.82 1.452-15.571-.043-1.67-.905-55.32-54.231-104.462-103.396C111.816 88.369 61.226 37.391 58.241 33.711c3.578-.906 53.052-1.17 215.11-1.17 162.115 0 211.577.264 215.114 1.17-2.924 3.67-53.581 54.705-102.866 103.978zm-260.38 144.954l66.984-66.98 25.198 24.858c26.342 25.987 31.096 29.649 42.392 32.657 7.937 2.112 21.651 1.897 28.773-.451 10.787-3.56 16.185-7.833 41.26-32.664l24.657-24.414 66.99 66.985c35.279 35.275 64.923 65.468 67.003 68.232-3.43.91-52.862 1.175-215.125 1.175-162.265 0-211.698-.265-215.125-1.175 2.076-2.763 31.717-32.953 66.994-68.223zm43.327-90.451c-1.213 1.982-30.949 32.413-66.782 68.34-35.504 35.596-65.675 65.263-68.05 66.921-1-2.151-1.18-37.907-1.18-135.162 0-101.877.26-132.992 1.151-135.16 2.359 1.621 30.689 29.455 68.05 66.867 37.75 37.8 65.67 66.301 66.81 68.194z"/></svg>