<svg xmlns="http://www.w3.org/2000/svg" viewBox="0 0 18.3 19.3"><defs><style>.\38 0863e2c-6918-4588-8b15-cf4ba5806dba{fill:#1d2225}</style></defs><title>man</title><g id="281ddd03-f298-488b-b48c-95dd3b03be3b" data-name="Слой 2"><path class="80863e2c-6918-4588-8b15-cf4ba5806dba" d="M9.15 19.3a58.8 58.8 0 0 1-8.61-.46L0 18.75v-.54A7.78 7.78 0 0 1 5.86 11l.38 1.24a6.5 6.5 0 0 0-4.89 5.36 69 69 0 0 0 7.8.36 68.92 68.92 0 0 0 7.8-.36 6.55 6.55 0 0 0-4.71-5.29l.43-1.23a7.84 7.84 0 0 1 5.64 7.09v.54l-.54.09a58.8 58.8 0 0 1-8.62.5zm0-9a5.15 5.15 0 1 1 5.15-5.15 5.16 5.16 0 0 1-5.15 5.15zm0-9A3.85 3.85 0 1 0 13 5.15 3.85 3.85 0 0 0 9.15 1.3z" id="ef2b3bd9-0a33-46c6-925b-0746c5c88c9b" data-name="Слой 1"/></g></svg>