<svg xmlns="http://www.w3.org/2000/svg" width="449.161" height="451.149" viewBox="0 0 449.16092 451.14941"><defs><style>.a{fill:#1d2225}</style></defs><title>phone2</title><path class="a" d="M433.061 321.892L378.2 266.829c-10.197-10.617-22.478-16.23-35.513-16.23-12.943 0-25.35 5.566-35.877 16.094l-30.356 30.262a414.848 414.848 0 0 0-3.618-1.872l-.16-.081a731.72 731.72 0 0 1-2.443-1.259c-3.539-1.77-6.882-3.441-9.673-5.173-29.394-18.67-56.127-43.035-81.71-74.468-11.904-15.047-19.966-27.62-25.984-40.548 6.968-6.448 13.519-13.094 19.872-19.54l2.128-2.16c1.365-1.364 2.751-2.775 4.118-4.166l.097-.1c1.372-1.395 2.79-2.839 4.185-4.234 10.77-10.77 16.464-23.315 16.464-36.28s-5.693-25.509-16.464-36.279l-27.3-27.3c-3.083-3.083-6.272-6.272-9.272-9.472-5.893-6.09-12.26-12.568-18.837-18.636C117.686 5.32 105.524 0 92.686 0c-12.85 0-25.179 5.314-35.687 15.402L22.807 49.896A75.568 75.568 0 0 0 .419 97.88c-2.431 29.584 6.22 57.099 12.94 75.22 16.353 44.114 40.79 84.88 76.906 128.3 44.055 52.604 97.041 94.093 157.503 123.322 23.324 11.05 54.502 24.02 88.907 26.226 2.263.106 4.457.201 6.41.201 23.82 0 43.828-8.61 59.468-25.591l.18-.222a3.222 3.222 0 0 0 .39-.477 207.531 207.531 0 0 1 15.835-16.442l1.368-1.323c5.206-4.967 9.362-9.09 13.073-12.974 10.312-10.728 15.762-23.262 15.762-36.245 0-13.111-5.567-25.554-16.1-35.983zM408.997 373.8c-2.693 2.814-5.426 5.47-8.298 8.26l-2.253 2.195a265.609 265.609 0 0 0-19.394 20.097c-9.667 10.334-21.063 15.147-35.866 15.147-1.485 0-3.021 0-4.449-.096-29.337-1.877-56.627-13.368-77.116-23.166-56.355-27.282-105.75-65.97-146.807-114.98-33.848-40.795-56.6-78.675-71.603-119.214-9.134-24.455-12.544-43.444-11.059-61.566a43.656 43.656 0 0 1 13.113-28.224l34.046-34.047c4.5-4.225 9.195-6.457 13.575-6.457 5.469 0 10.045 3.428 12.92 6.304l.358.356c5.788 5.409 11.348 11.034 17.916 17.817 1.563 1.613 3.184 3.26 4.75 4.852l.29.294a893.032 893.032 0 0 1 4.487 4.581l27.3 27.3c9.558 9.559 9.558 18.083 0 27.641q-1.31 1.309-2.598 2.617l-.347.35c-1.738 1.76-3.707 3.752-5.675 5.653-8.913 9.126-16.576 16.752-25.001 24.305l-.124.11a3.56 3.56 0 0 0-.624.635c-9.153 9.285-7.592 18.669-5.605 24.964l.31.924.048.128c7.1 17.2 17.173 33.638 32.66 53.298l.172.191c27.803 34.232 57.013 60.797 89.29 81.21a137.626 137.626 0 0 0 12.51 6.819c3.547 1.772 6.895 3.447 9.742 5.21l.155.087c.13.066.262.152.42.25.254.16.52.32.783.453a24.128 24.128 0 0 0 10.963 2.75c9.277 0 15-5.715 16.88-7.594l34.2-34.2c3.104-3.105 7.951-6.805 13.42-6.805 5.826 0 10.43 4.097 12.72 6.605l55.31 55.307c9.072 8.985 9.304 17.917.7 27.283z"/></svg>