<svg xmlns="http://www.w3.org/2000/svg" width="322.398" height="281.4" viewBox="0 0 322.39833 281.40045"><defs><style>.a{fill:#1c2124}</style></defs><title>telegram2</title><path class="a" d="M248.602 281.4a33.779 33.779 0 0 1-13.57-3.036 10.512 10.512 0 0 1-2.19-1.29l-109.147-83.682-38.439-18.577-66.708-22.458a4.893 4.893 0 0 1-.16-.055c-1.683-.597-16.49-6.237-18.242-20.26-1.507-12.057 8.941-20.16 18.448-23.488L285.883 3.703c4.377-1.893 18.331-7.014 28.324-.49 3.059 1.997 8.191 6.8 8.191 16.528a10.511 10.511 0 0 1-.2 2.043L274.53 262.116a10.499 10.499 0 0 1-.55 1.857c-.451 1.126-4.708 11.126-15.336 15.487a26.343 26.343 0 0 1-10.043 1.94zm-4.097-21.847c2.55.952 4.621 1.115 6.168.48a8.28 8.28 0 0 0 3.527-3.353l46.72-235.563a29.314 29.314 0 0 0-6.798 1.903c-.128.056-.258.11-.39.161l-267.666 105q-.216.085-.435.16a17.929 17.929 0 0 0-3.822 1.99 13.662 13.662 0 0 0 3.615 2.183l67.157 22.609a10.506 10.506 0 0 1 1.22.497l40 19.332a10.55 10.55 0 0 1 1.819 1.121z"/><path class="a" d="M171.408 216.742l-43.51 39.67c0 1.284-7.122 1.284-7.122 0l8.331-72.723.458-1.283s122-109.665 127-114.332 3.333-5.667 3.333-5.667c.333-5.666-9 0-9 0L89.231 165.074s20.334 66.666 24.334 79.332c4 12.668 6.355 12.438 7.211 12.438"/><path class="a" d="M124.337 267.875a20.04 20.04 0 0 1-5.11-.609c-8.994-.953-12.806-10.612-15.675-19.699-3.97-12.57-23.533-76.706-24.364-79.43a10.5 10.5 0 0 1 4.414-11.926L245.27 53.543l.18-.112c5.158-3.131 12.644-6.06 19.004-2.229a12.257 12.257 0 0 1 5.778 8.713 11.374 11.374 0 0 1 .37 1.909c.64 6.06-3.336 10.626-6.871 13.925-4.664 4.354-106.334 95.757-124.532 112.117l-5.634 49.171 30.77-28.054a10.5 10.5 0 0 1 14.161 15.506l-.013.012-42.626 38.864c-2.087 2.513-5.675 4.51-11.519 4.51zm-22.73-98.222a40681.29 40681.29 0 0 0 13.488 44.1l3.58-31.259a10.508 10.508 0 0 1 .542-2.331l.458-1.283a10.495 10.495 0 0 1 2.87-4.283c18.76-16.862 45.163-40.603 69.036-62.083z"/><path class="a" d="M171.4 227.242a10.453 10.453 0 0 1-6.457-2.227l-42.3-33.052a10.5 10.5 0 1 1 12.918-16.556l.011.009 42.3 33.053a10.5 10.5 0 0 1-6.471 18.773z"/></svg>