<svg xmlns="http://www.w3.org/2000/svg" width="62" height="46.44" viewBox="0 0 62 46.44"><title>works</title><path d="M57 10.55H44.08V5a5 5 0 0 0-5-5h-16.2a5 5 0 0 0-5 5v5.55H5a5 5 0 0 0-5 5v25.89a5 5 0 0 0 5 5h52a5 5 0 0 0 5-5V15.55a5 5 0 0 0-5-5zm-20.57 0H25.57V10a2 2 0 0 1 2-2h6.83a2 2 0 0 1 2 2zM20.88 5a2 2 0 0 1 2-2h16.2a2 2 0 0 1 2 2v5.51H39.4V10a5 5 0 0 0-5-5h-6.83a5 5 0 0 0-5 5v.49h-1.69zM5 13.55h52a2 2 0 0 1 2 2v9.87l-.69.27C25.11 38.51 3.85 26 3.6 25.8l-.6-.36v-9.89a2 2 0 0 1 2-2zm52 29.89H5a2 2 0 0 1-2-2V28.9c2.87 1.52 12 5.63 25.91 5.63A84 84 0 0 0 59 28.63v12.81a2 2 0 0 1-2 2z"/></svg>