<svg xmlns="http://www.w3.org/2000/svg" width="34.46" height="21.57" viewBox="0 0 34.46 21.57"><defs><style>.a{fill:#0057ff;}</style></defs><title>be_icon_4</title><path class="a" d="M10,0a12.79,12.79,0,0,1,2.76.27,6,6,0,0,1,2.14.87,4.16,4.16,0,0,1,1.38,1.62,5.59,5.59,0,0,1,.49,2.48A4.53,4.53,0,0,1,16,7.91a5.1,5.1,0,0,1-2.16,1.74,5.1,5.1,0,0,1,2.91,2,5.94,5.94,0,0,1,1,3.4,5.91,5.91,0,0,1-.62,2.77,5.33,5.33,0,0,1-1.67,1.92A7.63,7.63,0,0,1,13,20.82a11.25,11.25,0,0,1-2.77.35H0V0ZM9.4,8.55a3.4,3.4,0,0,0,2-.59,2.22,2.22,0,0,0,.83-2A2.52,2.52,0,0,0,12,4.82a2,2,0,0,0-.72-.74,3,3,0,0,0-1-.37A6.84,6.84,0,0,0,9,3.61H4.66V8.55Zm.26,9a5.18,5.18,0,0,0,1.3-.14A3,3,0,0,0,12,17a2.27,2.27,0,0,0,.76-.84A3,3,0,0,0,13,14.79a2.77,2.77,0,0,0-.92-2.34,4,4,0,0,0-2.43-.69h-5v5.83Z"/><path class="a" d="M24.37,17.5a3.77,3.77,0,0,0,2.73.92,3.7,3.7,0,0,0,2.19-.64,2.7,2.7,0,0,0,1.13-1.36h3.71a7,7,0,0,1-2.74,4A8,8,0,0,1,27,21.57,8.91,8.91,0,0,1,23.69,21a6.92,6.92,0,0,1-2.48-1.65,7.69,7.69,0,0,1-1.56-2.55,9.6,9.6,0,0,1-.55-3.27,8.8,8.8,0,0,1,.57-3.21A7.61,7.61,0,0,1,23.76,6,8,8,0,0,1,27,5.41a7.15,7.15,0,0,1,3.4.76,6.8,6.8,0,0,1,2.39,2,8.24,8.24,0,0,1,1.35,2.91,10.59,10.59,0,0,1,.29,3.41H23.33A4.3,4.3,0,0,0,24.37,17.5Zm4.84-8.06a3.16,3.16,0,0,0-2.38-.85,3.75,3.75,0,0,0-1.68.34,3.37,3.37,0,0,0-1.06.85,3,3,0,0,0-.57,1.08,4.9,4.9,0,0,0-.19,1h6.85A4.08,4.08,0,0,0,29.21,9.44Z"/><path class="a" d="M22.47,1.42h8.58V3.51H22.47Z"/></svg>