<svg xmlns="http://www.w3.org/2000/svg" width="34.42" height="21.57" viewBox="0 0 34.42 21.57"><defs><style>.a{fill:#0057ff;}</style></defs><title>be_icon_1</title><path class="a" d="M10,0a13,13,0,0,1,2.76.27,6,6,0,0,1,2.14.87,4.12,4.12,0,0,1,1.38,1.62,5.56,5.56,0,0,1,.49,2.48A4.59,4.59,0,0,1,16,7.91a5.17,5.17,0,0,1-2.16,1.74,5.1,5.1,0,0,1,2.91,2,5.89,5.89,0,0,1,1,3.4,5.87,5.87,0,0,1-.62,2.77,5.36,5.36,0,0,1-1.67,1.92A7.69,7.69,0,0,1,13,20.82a11.07,11.07,0,0,1-2.77.35H0V0Zm-.6,8.55a3.36,3.36,0,0,0,2-.59A2.21,2.21,0,0,0,12.23,6,2.57,2.57,0,0,0,12,4.82a2,2,0,0,0-.72-.74,3,3,0,0,0-1-.37A6.62,6.62,0,0,0,9,3.61H4.66V8.55Zm.26,9a5.46,5.46,0,0,0,1.3-.14A2.93,2.93,0,0,0,12,17a2.21,2.21,0,0,0,.76-.84,2.93,2.93,0,0,0,.28-1.37,2.77,2.77,0,0,0-.92-2.34,4,4,0,0,0-2.43-.69H4.66v5.83Z"/><path class="a" d="M24.37,17.5a3.79,3.79,0,0,0,2.73.92,3.7,3.7,0,0,0,2.19-.64,2.73,2.73,0,0,0,1.13-1.36h3.71a7.05,7.05,0,0,1-2.74,4A8,8,0,0,1,27,21.57,8.9,8.9,0,0,1,23.69,21a6.92,6.92,0,0,1-2.48-1.65,7.58,7.58,0,0,1-1.56-2.55,9.55,9.55,0,0,1-.55-3.27,8.88,8.88,0,0,1,.57-3.21,7.6,7.6,0,0,1,1.6-2.57A7.78,7.78,0,0,1,23.76,6,8,8,0,0,1,27,5.41a7.22,7.22,0,0,1,3.4.76,6.74,6.74,0,0,1,2.39,2,8.27,8.27,0,0,1,1.35,2.91,10.7,10.7,0,0,1,.29,3.41H23.33A4.33,4.33,0,0,0,24.37,17.5Zm4.84-8.06a3.16,3.16,0,0,0-2.38-.85,3.67,3.67,0,0,0-1.68.34,3.34,3.34,0,0,0-1.06.85,3,3,0,0,0-.57,1.08,4.66,4.66,0,0,0-.19,1h6.85A4.11,4.11,0,0,0,29.21,9.44Z"/><rect class="a" x="22.47" y="1.42" width="8.58" height="2.09"/></svg>