<svg xmlns="http://www.w3.org/2000/svg" width="44.21513" height="44.21513" viewBox="0 0 44.21513 44.21513"><defs><style>.a{fill:#0092dd;}.b{fill:none;}</style></defs><title>favicon_1</title><path class="a" d="M32.09933,12.46135q-.12616-2.28645-.4281-4.5587-.183-1.3755-.4306-2.7424c-.0382-.0377-.0774-.0748-.1187-.1103a2.33534,2.33534,0,0,0-3.4843.4974q.29715,1.54965.5121,3.112.20715,1.509.3364,3.0266.0402.4698.0722.9402-.12029-.47985-.2544-.9551a34.91225,34.91225,0,0,0-3.57-8.3388q-.7883-1.3308-1.69239-2.5886c-.03131-.0086-.06261-.017-.09461-.0244a2.34013,2.34013,0,0,0-2.8609,2.0945q.84166,1.1682,1.5851,2.4019a34.97616,34.97616,0,0,1,2.513,5.0533l-.0265-.042a36.2111,36.2111,0,0,0-6.2644-8.2918q-.8133-.80475-1.6758-1.557a2.33873,2.33873,0,0,0-.6907-.0614c-.0631.0037-.12519.0107-.1866.0192a2.3388,2.3388,0,0,0-1.881,3.0949q.85843.7224,1.66941,1.499a34.73133,34.73133,0,0,1,8.78069,13.6333,8.46651,8.46651,0,0,0-11.88412,7.24737,2.33875,2.33875,0,0,0,3.5888.8832,4.88738,4.88738,0,1,1,.3075,1.1101,2.33833,2.33833,0,0,0-2.7517,2.7067c.0072.0404.0153.0805.0246.1203a2.323,2.323,0,0,0,.172.4886A14.6127,14.6127,0,0,0,14.971,34.367a13.94185,13.94185,0,0,1,6.2301,5.3148q.3537.556.655,1.1468a13.81212,13.81212,0,0,1,.5992,1.352q.10682.28035.2019.566.18839.5676.3284,1.156a34.58637,34.58637,0,0,0,1.2201-3.2422,14.66685,14.66685,0,0,0,1.8797.2682c.1472.0113.29511.02.4435.0269.2312.0108.46361.0169.6975.0169a14.77894,14.77894,0,0,0,2.0925-.1492,40.22161,40.22161,0,0,0,1.01531-10.3887A59.14547,59.14547,0,0,0,32.09933,12.46135Z"/><rect class="b" width="44.21513" height="44.21513"/></svg>