<svg xmlns="http://www.w3.org/2000/svg" width="20.165" height="43.59" viewBox="0 0 20.16487 43.59009"><defs><style>.a{fill:#0092dd}</style></defs><title>favicon</title><path class="a" d="M20.074 12.149q-.126-2.287-.428-4.559-.183-1.375-.43-2.742a2.352 2.352 0 0 0-.12-.11 2.335 2.335 0 0 0-3.483.497q.297 1.55.512 3.112.207 1.509.336 3.026.04.47.072.94-.12-.48-.254-.954a34.912 34.912 0 0 0-3.57-8.34Q11.92 1.69 11.016.432a2.385 2.385 0 0 0-.094-.024A2.34 2.34 0 0 0 8.06 2.5q.842 1.168 1.585 2.402a34.976 34.976 0 0 1 2.513 5.053l-.026-.042a36.211 36.211 0 0 0-6.265-8.291Q5.055.818 4.192.066a2.339 2.339 0 0 0-.69-.062 1.91 1.91 0 0 0-.187.02 2.339 2.339 0 0 0-1.881 3.094q.858.723 1.67 1.5a34.731 34.731 0 0 1 8.78 13.633A8.467 8.467 0 0 0 0 25.498a2.339 2.339 0 0 0 3.589.883 4.887 4.887 0 1 1 .307 1.11 2.338 2.338 0 0 0-2.751 2.707l.024.12a2.323 2.323 0 0 0 .172.489 14.613 14.613 0 0 0 1.605 3.248 13.942 13.942 0 0 1 6.23 5.314q.354.556.655 1.147a13.812 13.812 0 0 1 .6 1.352q.106.28.201.566.188.568.328 1.156a34.586 34.586 0 0 0 1.22-3.242 14.667 14.667 0 0 0 1.88.268 14.742 14.742 0 0 0 1.141.044 14.779 14.779 0 0 0 2.093-.15 40.222 40.222 0 0 0 1.015-10.388 59.145 59.145 0 0 0 1.765-17.973z"/></svg>