<svg xmlns="http://www.w3.org/2000/svg" width="16.71326" height="16.71326" viewBox="0 0 16.71326 16.71326"><defs><style>.a{fill:#3fa9f5;}</style></defs><title>full_1</title><path class="a" d="M5.93872,0H.5A.5.5,0,0,0,0,.5V5.93884a.5.5,0,0,0,.5.5h.90991a.5.5,0,0,0,.5-.5V1.91H5.93872a.5.5,0,0,0,.5-.5V.5A.5.5,0,0,0,5.93872,0Z"/><path class="a" d="M16.21326,0H10.77441a.5.5,0,0,0-.5.5v.91a.5.5,0,0,0,.5.5h4.02881V5.93884a.5.5,0,0,0,.5.5h.91a.5.5,0,0,0,.5-.5V.5A.5.5,0,0,0,16.21326,0Z"/><path class="a" d="M16.21326,10.27454h-.91a.5.5,0,0,0-.5.5v4.02881H10.77441a.5.5,0,0,0-.5.5v.90991a.5.5,0,0,0,.5.5h5.43884a.5.5,0,0,0,.5-.5V10.77454A.5.5,0,0,0,16.21326,10.27454Z"/><path class="a" d="M5.93872,14.80334H1.90991V10.77454a.5.5,0,0,0-.5-.5H.5a.5.5,0,0,0-.5.5v5.43872a.49987.49987,0,0,0,.5.5H5.93872a.5.5,0,0,0,.5-.5v-.90991A.5.5,0,0,0,5.93872,14.80334Z"/></svg>