<svg xmlns="http://www.w3.org/2000/svg" width="16.713" height="16.713" viewBox="0 0 16.71326 16.71326"><defs><style>.a{fill:#3fa9f5}</style></defs><title>full_1</title><path class="a" d="M5.939 0H.5a.5.5 0 0 0-.5.5v5.439a.5.5 0 0 0 .5.5h.91a.5.5 0 0 0 .5-.5V1.91h4.029a.5.5 0 0 0 .5-.5V.5a.5.5 0 0 0-.5-.5zm10.274 0h-5.439a.5.5 0 0 0-.5.5v.91a.5.5 0 0 0 .5.5h4.03v4.029a.5.5 0 0 0 .5.5h.91a.5.5 0 0 0 .5-.5V.5a.5.5 0 0 0-.5-.5zm0 10.275h-.91a.5.5 0 0 0-.5.5v4.028h-4.029a.5.5 0 0 0-.5.5v.91a.5.5 0 0 0 .5.5h5.44a.5.5 0 0 0 .5-.5v-5.438a.5.5 0 0 0-.5-.5zM5.939 14.803h-4.03v-4.028a.5.5 0 0 0-.5-.5H.5a.5.5 0 0 0-.5.5v5.438a.5.5 0 0 0 .5.5h5.439a.5.5 0 0 0 .5-.5v-.91a.5.5 0 0 0-.5-.5z"/></svg>