<svg xmlns="http://www.w3.org/2000/svg" width="16.71338" height="16.71338" viewBox="0 0 16.71338 16.71338"><defs><style>.a{fill:#3fa9f5;}</style></defs><title>full</title><polygon class="a" points="6.439 0 2.241 0 0 0 0 2.241 0 6.439 2.241 6.439 2.241 2.241 6.439 2.241 6.439 0"/><polygon class="a" points="14.472 0 10.275 0 10.275 2.241 14.472 2.241 14.472 6.439 16.713 6.439 16.713 2.241 16.713 0 14.472 0"/><polygon class="a" points="14.472 10.275 14.472 14.472 10.275 14.472 10.275 16.713 14.472 16.713 16.713 16.713 16.713 14.472 16.713 10.275 14.472 10.275"/><polygon class="a" points="2.241 14.472 2.241 10.275 0 10.275 0 14.472 0 16.713 2.241 16.713 6.439 16.713 6.439 14.472 2.241 14.472"/></svg>