<svg xmlns="http://www.w3.org/2000/svg" viewBox="0 0 520.43 520.43"><defs><style>.cls-1{fill:#0092dd;}</style></defs><title>illustration</title><g id="Слой_2" data-name="Слой 2"><g id="Слой_1-2" data-name="Слой 1"><polygon class="cls-1" points="444.25 336.4 444.24 330.63 444.23 292.51 441.25 295.49 413.21 323.55 354.19 382.63 323.63 413.21 292.67 444.2 280.69 456.19 260.3 476.59 235.09 451.39 207.25 467.46 260.21 520.43 315.2 465.44 390.32 485.57 401.42 444.16 444.29 444.14 444.25 336.4"/><polygon class="cls-1" points="260.21 0 205.22 54.99 130.11 34.86 119.01 76.27 76.14 76.29 76.18 184.03 76.19 189.79 76.2 227.92 79.18 224.94 107.22 196.88 166.24 137.8 196.8 107.22 227.76 76.23 239.75 64.24 260.13 43.84 285.35 69.04 313.18 52.97 260.21 0"/><polygon class="cls-1" points="224.94 441.25 196.88 413.21 137.8 354.19 107.22 323.63 76.23 292.67 64.24 280.69 43.84 260.3 69.04 235.09 52.97 207.25 0 260.21 54.99 315.2 34.86 390.32 76.27 401.42 76.29 444.29 184.03 444.25 189.79 444.24 227.92 444.23 224.94 441.25"/><polygon class="cls-1" points="465.44 205.22 485.57 130.11 444.16 119.01 444.14 76.14 336.4 76.18 330.63 76.19 292.51 76.2 295.49 79.18 323.55 107.22 382.63 166.24 413.21 196.8 444.2 227.76 456.19 239.75 476.59 260.13 451.39 285.35 467.46 313.18 520.43 260.21 465.44 205.22"/></g></g></svg>