<svg xmlns="http://www.w3.org/2000/svg" width="546.70135" height="384.43652" viewBox="0 0 546.70135 384.43652"><defs><style>.a{fill:#1d2225;}</style></defs><title>mail2</title><path class="a" d="M545.57422,39.59375a48.825,48.825,0,0,0-38.46-38.46045C503.00684.35449,383.05859,0,273.35059,0S43.69482.35449,39.5874,1.1333A48.82306,48.82306,0,0,0,1.127,39.59375C.35254,43.67822,0,121.61035,0,192.29053S.35254,340.90332,1.127,344.9873a49.21682,49.21682,0,0,0,13.24414,24.89648,47.52449,47.52449,0,0,0,24.38037,13.499c3.57129.70117,123.8506,1.03711,234.09377,1.05273l7.98291.001c110.03613,0,222.67969-.30566,226.28613-.98828a48.8231,48.8231,0,0,0,38.46-38.46094c.77441-4.08594,1.127-82.01758,1.127-152.69678C546.70117,121.61182,546.34863,43.68018,545.57422,39.59375ZM514.167,192.29053c0,101.83643-.25977,132.96045-1.14941,135.15576-2.37012-1.66406-30.68164-29.47852-68.01855-66.8291-37.74707-37.76074-65.68066-66.22168-66.84375-68.10156,1.14355-1.89209,29.0459-30.457,66.76758-68.34766,37.19043-37.35791,66.17773-65.93848,68.01758-67.0708C513.99707,58.61133,514.167,91.05273,514.167,192.29053ZM385.59863,137.68945c-49.19238,49.18066-102.89551,102.49512-104.55762,103.335-2.92285,1.47852-12.81934,1.45117-15.57129-.043-1.66992-.90527-55.32031-54.23193-104.46143-103.39648C111.81592,88.36865,61.22559,37.39063,58.24072,33.71094c3.57861-.90625,53.05225-1.17041,215.10987-1.17041,162.11523,0,211.57715.26416,215.11426,1.17139C485.541,37.38086,434.88379,88.416,385.59863,137.68945ZM125.21973,282.64258l66.9834-66.97949,25.19775,24.8584c26.34229,25.98633,31.09619,29.64844,42.39209,32.65625,7.9375,2.1123,21.65137,1.89746,28.77344-.45117,10.78613-3.55957,16.18457-7.833,41.25977-32.66309l24.65723-24.41406,66.98926,66.98438c35.2793,35.27539,64.92383,65.46777,67.00293,68.23242-3.42871.91016-52.86133,1.1748-215.125,1.1748-162.26465,0-211.69727-.26465-215.125-1.1748C60.30225,348.10254,89.94336,317.91309,125.21973,282.64258Zm43.32617-90.45068c-1.21338,1.98193-30.94873,32.41357-66.78174,68.34033-35.50439,35.5957-65.67529,65.2627-68.0498,66.9209-1-2.15137-1.18018-37.90723-1.18018-135.1626,0-101.877.25977-132.99121,1.15088-135.15918,2.35889,1.62109,30.68848,29.45459,68.05029,66.8667C139.48438,161.79785,167.40576,190.29932,168.5459,192.19189Z"/></svg>