<svg xmlns="http://www.w3.org/2000/svg" width="18.31" height="19.31177" viewBox="0 0 18.31 19.31177"><title>man2</title><path d="M9.15,19.3a58.80015,58.80015,0,0,1-8.61-.46L0,18.75v-.54A7.78,7.78,0,0,1,5.86,11l.38,1.24A6.5,6.5,0,0,0,1.35,17.6a68.99991,68.99991,0,0,0,7.8.36,68.92013,68.92013,0,0,0,7.8-.36,6.55,6.55,0,0,0-4.71-5.29l.43-1.23a7.84,7.84,0,0,1,5.64,7.09v.54l-.54.09A58.80008,58.80008,0,0,1,9.15,19.3Z"/><path d="M9.15,10.3A5.15,5.15,0,1,1,14.3,5.15,5.15,5.15,0,0,1,9.15,10.3Zm0-9A3.85,3.85,0,1,0,13,5.15,3.85,3.85,0,0,0,9.15,1.3Z"/></svg>