<svg xmlns="http://www.w3.org/2000/svg" viewBox="0 0 449.16089 451.14941"><title>phone</title><g id="4dfae45d-9f65-4161-ace4-e42bdd14eea1" data-name="Слой 2"><g id="029dd0ba-0d8b-492d-b18e-3b64b1e4eb8a" data-name="Capa 1"><path d="M433.06128,321.8916,378.199,266.8291c-10.19727-10.61719-22.47754-16.22949-35.5127-16.22949-12.94336,0-25.35059,5.56543-35.877,16.09375l-30.35645,30.26172c-1.19824-.62988-2.39844-1.24609-3.61816-1.87207l-.15918-.08105c-.80469-.41309-1.60449-.82422-2.44336-1.25879-3.53906-1.77051-6.88184-3.44141-9.67285-5.17285-29.394-18.66992-56.127-43.03516-81.71045-74.46875-11.90381-15.04639-19.96582-27.61865-25.98389-40.54736,6.96826-6.44775,13.51855-13.09424,19.87158-19.54053L174.865,151.854c1.36475-1.36426,2.75146-2.77539,4.11816-4.166l.09717-.09912c1.37158-1.396,2.79-2.83984,4.18506-4.23486,10.77051-10.77,16.46338-23.31543,16.46338-36.2793s-5.69287-25.50928-16.46338-36.2793l-27.30029-27.2998c-3.0835-3.084-6.27246-6.27295-9.27246-9.47217-5.89307-6.08984-12.25977-12.56836-18.83643-18.63672C117.68579,5.3208,105.52417,0,92.68579,0,79.8352,0,67.50708,5.314,56.99927,15.40234L22.80688,49.89551A75.56846,75.56846,0,0,0,.41919,97.87988c-2.43164,29.58447,6.2207,57.09863,12.93994,75.2207,16.353,44.11328,40.78906,84.87891,76.90625,128.29883,44.0542,52.60449,97.041,94.09375,157.50293,123.32227,23.32324,11.05078,54.502,24.01953,88.90625,26.22656,2.26367.10547,4.457.20117,6.41113.20117,23.81836,0,43.82715-8.61035,59.46777-25.5918l.17969-.22168a3.22292,3.22292,0,0,0,.38965-.47656,207.5295,207.5295,0,0,1,15.835-16.44238l1.36816-1.32324c5.20605-4.9668,9.3623-9.08984,13.07324-12.97363,10.31152-10.72852,15.76172-23.26172,15.76172-36.24512C449.16089,344.76367,443.59448,332.32129,433.06128,321.8916Zm-24.06445,51.90918c-2.69238,2.81445-5.42578,5.4707-8.29785,8.26074l-2.25293,2.19434a265.605,265.605,0,0,0-19.39453,20.09668C369.3855,414.68652,357.989,419.5,343.18628,419.5c-1.48535,0-3.02148,0-4.44922-.0957-29.33691-1.877-56.627-13.36816-77.11621-23.166-56.355-27.28223-105.75-65.96973-146.80713-114.98047C80.96606,240.46289,58.2146,202.583,43.21118,162.04395c-9.13379-24.45459-12.54443-43.44434-11.05908-61.56641A43.65557,43.65557,0,0,1,45.26538,72.25391L79.31079,38.20654C83.81128,33.98242,88.50561,31.75,92.886,31.75c5.46875,0,10.04492,3.42822,12.9209,6.3042l.35693.356c5.78809,5.40869,11.34814,11.03418,17.916,17.81689,1.563,1.61328,3.18408,3.25977,4.751,4.85156l.28906.29395c1.46436,1.48779,2.97217,3.01953,4.48682,4.58154L160.907,93.25391c9.55762,9.55859,9.55762,18.0835,0,27.64111q-1.30957,1.30884-2.59814,2.6167l-.34668.35107c-1.73779,1.7583-3.707,3.751-5.6748,5.65234-8.91357,9.126-16.57666,16.75146-25.00146,24.30518l-.12354.10986a3.5594,3.5594,0,0,0-.62451.63525c-9.15283,9.28418-7.59229,18.66846-5.60449,24.96338l.30957.92432.04785.12793c7.10059,17.2002,17.17334,33.6377,32.66016,53.29785l.17188.19141c27.80273,34.23145,57.0127,60.79688,89.291,81.209a137.62374,137.62374,0,0,0,12.50977,6.81934c3.5459,1.77246,6.89453,3.44727,9.74121,5.21094l.15527.08691c.12988.06543.26172.15137.41992.25.25391.15918.51953.31934.7832.45215a24.12811,24.12811,0,0,0,10.96289,2.751c9.27734,0,14.999-5.71582,16.87988-7.59473l34.2002-34.2002c3.10352-3.10449,7.95117-6.80469,13.41992-6.80469,5.82617,0,10.43066,4.09668,12.7207,6.60449l55.30859,55.30762c9.07227,8.98438,9.30469,17.917.70117,27.2832Z" style="fill:#1d2225"/></g></g></svg>