<svg xmlns="http://www.w3.org/2000/svg" width="322.39833" height="281.40045" viewBox="0 0 322.39833 281.40045"><defs><style>.a{fill:#1c2124;}</style></defs><title>telegram2</title><path class="a" d="M248.60193,281.40017a33.779,33.779,0,0,1-13.56979-3.0361,10.51193,10.51193,0,0,1-2.1895-1.291l-109.1474-83.68069-38.439-18.5771-66.708-22.458c-.0537-.01759-.1074-.03619-.1606-.05569-1.6827-.59669-16.4888-6.2363-18.2417-20.2588-1.5074-12.0576,8.9414-20.1611,18.4482-23.4883L285.88274,3.703c4.37689-1.8931,18.33151-7.0142,28.32419-.4903,3.05911,1.9971,8.19141,6.8003,8.19141,16.5279a10.5115,10.5115,0,0,1-.20071,2.0429l-47.667,240.3335a10.49866,10.49866,0,0,1-.55029,1.85651c-.45071,1.126-4.70752,11.126-15.33542,15.4873A26.34252,26.34252,0,0,1,248.60193,281.40017Zm-4.0972-21.8476c2.55029.95209,4.62161,1.1152,6.168.4805a8.27972,8.27972,0,0,0,3.5274-3.3526l46.72069-235.563a29.31392,29.31392,0,0,0-6.79889,1.9024c-.12839.0561-.2583.1103-.3891.1616l-267.667,105q-.21615.08414-.4351.1597a17.929,17.929,0,0,0-3.8218,1.9897,13.66233,13.66233,0,0,0,3.6153,2.18311l67.1572,22.6089a10.50617,10.50617,0,0,1,1.2188.4971l40,19.332a10.54957,10.54957,0,0,1,1.81979,1.12109Z"/><path class="a" d="M171.40822,216.742l-43.5098,39.67c0,1.28391-7.12209,1.28391-7.12209,0l8.33109-72.7227.4575-1.2832s122.0005-109.6655,127.00049-114.3325,3.333-5.667,3.333-5.667c.333-5.666-9,0-9,0L89.23142,165.07409s20.3335,66.666,24.3335,79.332c4,12.668,6.35541,12.4375,7.21141,12.4375"/><path class="a" d="M124.33734,267.87487a20.03968,20.03968,0,0,1-5.10991-.6084c-8.9946-.95319-12.8062-10.6124-15.6753-19.69929-3.9697-12.5703-23.5332-76.706-24.3642-79.4297a10.49926,10.49926,0,0,1,4.4145-11.9267l161.667-102.668c.0596-.0376.1196-.0752.18021-.1118,5.15771-3.1313,12.643-6.0596,19.00339-2.229a12.25656,12.25656,0,0,1,5.77832,8.7134,11.37421,11.37421,0,0,1,.36908,1.9082c.64069,6.061-3.33539,10.626-6.87061,13.9258-4.664,4.3535-106.3335,95.75629-124.5322,112.11671l-5.63329,49.1709,30.76949-28.0538A10.49972,10.49972,0,0,1,178.495,224.48923l-.01266.01154-42.626,38.8643C133.76892,265.87777,130.181,267.87487,124.33734,267.87487Zm-22.73051-98.22171c3.0688,10.0527,8.6411,28.29291,13.4878,44.09961l3.581-31.2588a10.508,10.508,0,0,1,.5415-2.3311l.4576-1.2832a10.49468,10.49468,0,0,1,2.87061-4.2822c18.75929-16.8623,45.16259-40.6035,69.03609-62.083Z"/><path class="a" d="M171.40073,227.242a10.453,10.453,0,0,1-6.4575-2.2265l-42.3008-33.0528A10.49969,10.49969,0,1,1,135.56078,175.407l.01135.00887,42.3008,33.0527a10.49971,10.49971,0,0,1-6.4722,18.77339Z"/></svg>