<svg xmlns="http://www.w3.org/2000/svg" viewBox="0 0 322.39835 281.40019"><title>telegram_1</title><g id="3263cb3a-2a8d-4756-96ba-88fc394fb24b" data-name="Слой 2"><g id="b73d1a3f-315e-4652-ba5a-698cef9cc505" data-name="Layer 1"><path d="M248.60194,281.40019a33.77866,33.77866,0,0,1-13.5698-3.0361,10.51174,10.51174,0,0,1-2.1895-1.291l-109.1474-83.6807-38.439-18.5771-66.708-22.458c-.0537-.0176-.1074-.0362-.1606-.0557-1.6827-.5967-16.4888-6.2363-18.2417-20.2588-1.5074-12.0576,8.9414-20.1611,18.4482-23.4883L285.88274,3.703c4.3769-1.8931,18.3315-7.0142,28.3242-.4903,3.0591,1.9971,8.19141,6.8003,8.19141,16.5279a10.51078,10.51078,0,0,1-.20071,2.0429l-47.667,240.3335a10.4988,10.4988,0,0,1-.55029,1.8565c-.45071,1.126-4.70751,11.126-15.33541,15.4873A26.34249,26.34249,0,0,1,248.60194,281.40019Zm-4.0972-21.8476c2.5503.9521,4.62161,1.1152,6.168.4805a8.2798,8.2798,0,0,0,3.5274-3.3526l46.7207-235.563a29.314,29.314,0,0,0-6.7989,1.9024c-.1284.0561-.2583.1103-.3891.1616l-267.667,105q-.21615.08415-.4351.1597a17.92915,17.92915,0,0,0-3.8218,1.9897,13.66216,13.66216,0,0,0,3.6153,2.1831l67.1572,22.6089a10.5063,10.5063,0,0,1,1.2188.4971l40,19.332a10.54962,10.54962,0,0,1,1.8198,1.1211Z" style="fill:#1c2124"/><path d="M171.40824,216.742l-43.5098,39.67c0,1.2839-7.12209,1.2839-7.12209,0l8.33109-72.7227.4575-1.2832s122.0005-109.6655,127.0005-114.3325,3.333-5.667,3.333-5.667c.333-5.666-9,0-9,0l-161.667,102.6675s20.3335,66.666,24.3335,79.332c4,12.668,6.35541,12.4375,7.21141,12.4375" style="fill:#1c2124"/><path d="M124.33735,267.87489a20.03924,20.03924,0,0,1-5.10991-.6084c-8.9946-.9532-12.8062-10.6124-15.6753-19.6993-3.9697-12.5703-23.5332-76.706-24.3642-79.4297a10.49927,10.49927,0,0,1,4.4145-11.9267l161.667-102.668c.0596-.0376.1196-.0752.1802-.1118,5.15771-3.1313,12.643-6.0596,19.0034-2.229a12.25652,12.25652,0,0,1,5.77831,8.7134,11.37538,11.37538,0,0,1,.36909,1.9082c.6407,6.061-3.3354,10.626-6.8706,13.9258-4.664,4.3535-106.33349,95.7563-124.5322,112.1167l-5.63329,49.1709,30.76949-28.0538a10.49972,10.49972,0,1,1,14.14851,15.5176l-42.626,38.8643C133.76894,265.87779,130.181,267.87489,124.33735,267.87489Zm-22.73051-98.2217c3.0688,10.0527,8.6411,28.2929,13.4878,44.0996l3.581-31.2588a10.50805,10.50805,0,0,1,.5415-2.3311l.4576-1.2832a10.49462,10.49462,0,0,1,2.87061-4.2822c18.75929-16.8623,45.16259-40.6035,69.03609-62.083Z" style="fill:#1c2124"/><path d="M171.40074,227.242a10.45307,10.45307,0,0,1-6.4575-2.2265l-42.3008-33.0528a10.49969,10.49969,0,1,1,12.9297-16.5468l42.3008,33.0527a10.49971,10.49971,0,0,1-6.4722,18.7734Z" style="fill:#1c2124"/></g></g></svg>