<?xml version="1.0" encoding="utf-8"?>
<!-- Generator: Adobe Illustrator 21.1.0, SVG Export Plug-In . SVG Version: 6.00 Build 0)  -->
<svg version="1.1" id="Слой_1" xmlns="http://www.w3.org/2000/svg" xmlns:xlink="http://www.w3.org/1999/xlink" x="0px" y="0px"
	 viewBox="0 0 143.5 43.6" style="enable-background:new 0 0 143.5 43.6;" xml:space="preserve">
<style type="text/css">
	.st0{fill:#FFFFFF;}
</style>
<title>virtuazen_logo2</title>
<path class="st0" d="M91,12.1c-0.1-1.5-0.2-3-0.4-4.6c-0.1-0.9-0.3-1.8-0.4-2.7c0,0-0.1-0.1-0.1-0.1C89,3.9,87.6,4,86.7,5
	c-0.1,0.1-0.1,0.2-0.2,0.3c0.2,1,0.4,2.1,0.5,3.1c0.1,1,0.3,2,0.3,3c0,0.3,0.1,0.6,0.1,0.9c-0.1-0.3-0.2-0.6-0.3-1
	c-0.8-2.9-2-5.7-3.6-8.3c-0.5-0.9-1.1-1.8-1.7-2.6c0,0-0.1,0-0.1,0c-1.3-0.3-2.5,0.5-2.8,1.8c0,0.1,0,0.2-0.1,0.3
	c0.6,0.8,1.1,1.6,1.6,2.4c1,1.6,1.8,3.3,2.5,5.1l0,0c-1.7-3.1-3.8-5.8-6.3-8.3c-0.5-0.5-1.1-1.1-1.7-1.6C74.9,0,74.6,0,74.4,0
	c-0.1,0-0.1,0-0.2,0c-1.3,0.2-2.2,1.4-2,2.6c0,0.2,0.1,0.3,0.1,0.5c0.6,0.5,1.1,1,1.7,1.5c4,3.8,7,8.5,8.8,13.6
	c-4.3-1.9-9.3,0-11.2,4.3c-0.4,0.9-0.7,1.9-0.7,2.9c0.5,1.2,1.9,1.7,3.1,1.2c0.2-0.1,0.3-0.2,0.5-0.3c-0.4-2.7,1.4-5.2,4.1-5.6
	c2.7-0.4,5.2,1.4,5.6,4.1s-1.4,5.2-4.1,5.6c-2.2,0.3-4.4-0.9-5.3-3c-1.3-0.2-2.5,0.6-2.7,1.8c-0.1,0.3-0.1,0.6,0,0.9
	c0,0,0,0.1,0,0.1c0,0.2,0.1,0.3,0.2,0.5c0.4,1.1,0.9,2.2,1.6,3.2c2.6,1.1,4.7,3,6.2,5.3c0.2,0.4,0.5,0.8,0.7,1.1
	c0.2,0.4,0.4,0.9,0.6,1.4c0.1,0.2,0.1,0.4,0.2,0.6c0.1,0.4,0.2,0.8,0.3,1.2c0.5-1.1,0.9-2.1,1.2-3.2c0.6,0.1,1.2,0.2,1.9,0.3
	c0.1,0,0.3,0,0.4,0c0.2,0,0.5,0,0.7,0c0.7,0,1.4,0,2.1-0.1c0.8-3.4,1.1-6.9,1-10.4C90.7,24.3,91.3,18.2,91,12.1z"/>
<path class="st0" d="M11.8,34.6H8L0,14.7h3.8l6.1,14.8L16,14.7h3.8L11.8,34.6z"/>
<path class="st0" d="M22.3,16.4c-0.8-0.8-0.8-2,0-2.8s2-0.8,2.8,0c0.8,0.8,0.8,2,0,2.8c-0.4,0.4-0.9,0.6-1.4,0.6
	C23.2,17,22.7,16.8,22.3,16.4z M25.3,34.6h-3.2V19.4h3.2V34.6z"/>
<path class="st0" d="M37.2,22.4c-1.4-0.1-2.7,0.5-3.6,1.5c-0.8,1.2-1.3,2.7-1.2,4.1v6.5h-3.2V19.4h3.2v3c0.5-0.9,1.2-1.7,2.1-2.3
	c0.8-0.6,1.8-0.9,2.8-0.9l0,3.2H37.2z"/>
<path class="st0" d="M44.5,22v7.7c0,0.6,0.2,1.2,0.6,1.7c0.4,0.4,1,0.7,1.6,0.6c0.8,0,1.5-0.4,2-1l1.3,2.2c-1,1-2.3,1.5-3.7,1.5
	c-1.3,0-2.6-0.5-3.5-1.4c-1-1-1.5-2.4-1.4-3.8V22h-1.9v-2.6h1.9v-4.8h3.2v4.8h4V22L44.5,22z"/>
<path class="st0" d="M63,27.6v-8.2h3.2v15.1H63v-2.8c-1.6,2.8-5.3,3.8-8.1,2.2c-0.4-0.2-0.7-0.5-1.1-0.8c-1.1-1.2-1.7-2.9-1.6-4.5
	v-9.3h3.2v8.3c0,2.8,1.2,4.2,3.5,4.2c1.1,0,2.1-0.4,2.9-1.1C62.6,30,63.1,28.8,63,27.6z"/>
<path class="st0" d="M96.2,21.8v-2.7H108V22l-8.5,9.4h9v2.8H95.6v-3.1l8.3-9.2H96.2z"/>
<path class="st0" d="M126.1,28h-11.9c0.1,1.1,0.6,2.1,1.5,2.7c2.4,1.6,5.5,1.3,7.5-0.8l1.8,2c-1.7,1.7-4,2.6-6.4,2.5
	c-2,0-4-0.7-5.4-2.1c-1.5-1.5-2.3-3.6-2.2-5.7c-0.1-2.1,0.7-4.2,2.3-5.7c1.4-1.4,3.4-2.1,5.4-2.1c1.9,0,3.8,0.6,5.2,1.9
	c1.5,1.3,2.3,3.2,2.2,5.1L126.1,28z M114.3,25.5h8.7c0.1-1.1-0.4-2.2-1.2-2.9c-0.8-0.7-1.9-1.1-2.9-1c-1.1,0-2.2,0.4-3.1,1.1
	C114.8,23.3,114.2,24.4,114.3,25.5z"/>
<path class="st0" d="M132.7,26v8.2h-3.2V19.1h3.2v2.8c1.6-2.8,5.3-3.8,8.1-2.2c0.4,0.2,0.7,0.5,1.1,0.8c1.1,1.2,1.7,2.9,1.6,4.5v9.3
	h-3.2v-8.3c0-2.8-1.2-4.2-3.5-4.2c-1.1,0-2.1,0.4-2.9,1.1C133.1,23.6,132.6,24.8,132.7,26z"/>
</svg>
