<svg xmlns="http://www.w3.org/2000/svg" width="143.473" height="43.59" viewBox="0 0 143.47316 43.59013"><title>virtuazen_logo2</title><path d="M90.984 12.149q-.126-2.287-.428-4.559-.183-1.375-.431-2.742a2.352 2.352 0 0 0-.119-.11 2.335 2.335 0 0 0-3.484.497q.297 1.55.512 3.112.207 1.509.336 3.026.04.47.073.94-.12-.48-.255-.954a34.912 34.912 0 0 0-3.57-8.34Q82.83 1.69 81.926.432a2.385 2.385 0 0 0-.095-.024 2.34 2.34 0 0 0-2.86 2.094q.841 1.168 1.584 2.402a34.976 34.976 0 0 1 2.513 5.053l-.026-.042a36.211 36.211 0 0 0-6.264-8.291Q75.964.818 75.102.066a2.339 2.339 0 0 0-.69-.062 1.93 1.93 0 0 0-.188.02 2.339 2.339 0 0 0-1.88 3.094q.858.723 1.669 1.5a34.731 34.731 0 0 1 8.78 13.633 8.467 8.467 0 0 0-11.884 7.247 2.339 2.339 0 0 0 3.59.883 4.887 4.887 0 1 1 .307 1.11 2.338 2.338 0 0 0-2.752 2.707c.007.04.015.08.025.12a2.323 2.323 0 0 0 .172.489 14.613 14.613 0 0 0 1.604 3.248 13.942 13.942 0 0 1 6.23 5.314q.354.556.656 1.147a13.812 13.812 0 0 1 .599 1.352q.107.28.202.566.188.568.328 1.156a34.586 34.586 0 0 0 1.22-3.242 14.667 14.667 0 0 0 1.88.268 14.742 14.742 0 0 0 1.14.044 14.779 14.779 0 0 0 2.093-.15 40.222 40.222 0 0 0 1.016-10.388 59.145 59.145 0 0 0 1.765-17.973z" fill="#0092dd"/><path d="M11.75 34.56H7.994L0 14.675h3.756L9.87 29.524l6.117-14.848h3.754zm10.58-18.15a1.993 1.993 0 1 1 1.424.598 1.946 1.946 0 0 1-1.424-.598zm2.988 18.15h-3.187V19.425h3.187zM37.18 22.413a4.228 4.228 0 0 0-3.557 1.536 6.553 6.553 0 0 0-1.193 4.125v6.485h-3.188V19.426h3.188v3.044a6.604 6.604 0 0 1 2.09-2.334 5.049 5.049 0 0 1 2.802-.938l.028 3.215zm7.281-.427v7.68a2.488 2.488 0 0 0 .57 1.721 2.018 2.018 0 0 0 1.592.64 2.708 2.708 0 0 0 1.963-.995l1.309 2.247a5.426 5.426 0 0 1-3.711 1.508 4.775 4.775 0 0 1-3.471-1.408 5.07 5.07 0 0 1-1.438-3.798v-7.595H39.37v-2.56h1.906v-4.75h3.186v4.75h3.982v2.56zm18.549 5.632v-8.192h3.185v15.133H63.01V31.8a5.942 5.942 0 0 1-9.176 1.423 6.098 6.098 0 0 1-1.578-4.523v-9.273h3.185v8.306q0 4.182 3.471 4.182a4.166 4.166 0 0 0 2.873-1.096 4.068 4.068 0 0 0 1.225-3.2zm33.17-5.778v-2.732h11.834v2.874l-8.506 9.444h8.96v2.76H95.612v-3.101l8.278-9.245zm29.955 6.172h-11.862a3.448 3.448 0 0 0 1.506 2.66 5.863 5.863 0 0 0 7.512-.783l1.82 1.993a8.469 8.469 0 0 1-6.373 2.53 7.58 7.58 0 0 1-5.418-2.118 7.47 7.47 0 0 1-2.234-5.69 7.36 7.36 0 0 1 2.275-5.675 7.64 7.64 0 0 1 5.364-2.105 7.765 7.765 0 0 1 5.248 1.863 6.421 6.421 0 0 1 2.162 5.135zm-11.862-2.502h8.676a3.648 3.648 0 0 0-1.195-2.931 4.366 4.366 0 0 0-2.943-1.024 5.042 5.042 0 0 0-3.145 1.067 3.442 3.442 0 0 0-1.392 2.888zm18.432.483v8.192h-3.185V19.052h3.185v2.76a5.94 5.94 0 0 1 9.174-1.424 6.091 6.091 0 0 1 1.58 4.524v9.273h-3.188V25.88q0-4.181-3.468-4.182a4.163 4.163 0 0 0-2.873 1.096 4.071 4.071 0 0 0-1.225 3.2z" fill="#0b1d23"/></svg>