<svg xmlns="http://www.w3.org/2000/svg" width="62" height="46.44" viewBox="0 0 62 46.44"><title>works</title><path d="M57,10.55H44.08V5a5,5,0,0,0-5-5H22.88a5,5,0,0,0-5,5v5.55H5a5,5,0,0,0-5,5V41.44a5,5,0,0,0,5,5H57a5,5,0,0,0,5-5V15.55A5,5,0,0,0,57,10.55Zm-20.57,0H25.57V10a2,2,0,0,1,2-2H34.4a2,2,0,0,1,2,2ZM20.88,5a2,2,0,0,1,2-2h16.2a2,2,0,0,1,2,2v5.51H39.4V10a5,5,0,0,0-5-5H27.57a5,5,0,0,0-5,5v.49H20.88ZM5,13.55H57a2,2,0,0,1,2,2v9.87l-.69.27C25.11,38.51,3.85,26,3.6,25.8L3,25.44V15.55A2,2,0,0,1,5,13.55ZM57,43.44H5a2,2,0,0,1-2-2V28.9c2.87,1.52,12,5.63,25.91,5.63A84,84,0,0,0,59,28.63V41.44A2,2,0,0,1,57,43.44Z"/></svg>